<svg id="visual" viewBox="0 0 1920 1080" width="1920" height="1080" xmlns="http://www.w3.org/2000/svg" xmlns:xlink="http://www.w3.org/1999/xlink" version="1.1"><path d="M0 353L45.7 328.7C91.3 304.3 182.7 255.7 274.2 266.2C365.7 276.7 457.3 346.3 548.8 362.2C640.3 378 731.7 340 823 347.8C914.3 355.7 1005.7 409.3 1097 389C1188.3 368.7 1279.7 274.3 1371.2 273C1462.7 271.7 1554.3 363.3 1645.8 367.7C1737.3 372 1828.7 289 1874.3 247.5L1920 206L1920 0L1874.3 0C1828.7 0 1737.3 0 1645.8 0C1554.3 0 1462.7 0 1371.2 0C1279.7 0 1188.3 0 1097 0C1005.7 0 914.3 0 823 0C731.7 0 640.3 0 548.8 0C457.3 0 365.7 0 274.2 0C182.7 0 91.3 0 45.7 0L0 0Z" fill="#A7233A" stroke-linecap="round" stroke-linejoin="miter"></path></svg>